<svg version="1.2" xmlns="http://www.w3.org/2000/svg" viewBox="0 0 512 336" width="512" height="336">
	<title>s-svg</title>
	<style>
		.s0 { fill: #fab446 } 
		.s1 { fill: #73af00 } 
		.s2 { fill: #f5f5f5 } 
		.s3 { fill: #41479b } 
	</style>
	<path id="Layer" class="s0" d="m512 112.1h-512v-103c0-4.9 4-8.8 8.8-8.8h494.4c4.8 0 8.8 3.9 8.8 8.8z"/>
	<path id="Layer" class="s1" d="m503.2 335.7h-494.4c-4.8 0-8.8-3.9-8.8-8.8v-103h512v103c0 4.9-4 8.8-8.8 8.8z"/>
	<path id="Layer" class="s2" d="m0 112.1h512v111.8h-512z"/>
	<g id="Layer">
		<path id="Layer" fill-rule="evenodd" class="s3" d="m256 215.4c-26.2 0-47.4-21.2-47.4-47.4 0-26.2 21.2-47.4 47.4-47.4 26.2 0 47.4 21.2 47.4 47.4 0 26.2-21.2 47.4-47.4 47.4zm0-86c-21.3 0-38.6 17.3-38.6 38.6 0 21.3 17.3 38.6 38.6 38.6 21.3 0 38.6-17.3 38.6-38.6 0-21.3-17.3-38.6-38.6-38.6z"/>
		<path id="Layer" class="s3" d="m256 173.4c-3 0-5.4-2.4-5.4-5.4 0-3 2.4-5.4 5.4-5.4 3 0 5.4 2.4 5.4 5.4 0 3-2.4 5.4-5.4 5.4z"/>
		<path id="Layer" class="s3" d="m256 168.8l-13.7 1.4-29.3-1.4v-1.6l29.3-1.4 13.7 1.4z"/>
		<path id="Layer" class="s3" d="m256 168.8l13.7 1.4 29.3-1.4v-1.6l-29.3-1.4-13.7 1.4z"/>
		<path id="Layer" class="s3" d="m255.2 168l-1.4-13.7 1.4-29.3h1.6l1.4 29.3-1.4 13.7z"/>
		<path id="Layer" class="s3" d="m255.2 168l-1.4 13.7 1.4 29.3h1.6l1.4-29.3-1.4-13.7z"/>
		<path id="Layer" class="s3" d="m255.4 168.6l-10.6-8.7-19.8-21.8 1.1-1.1 21.8 19.8 8.7 10.6z"/>
		<path id="Layer" class="s3" d="m255.4 168.6l8.7 10.6 21.8 19.8 1.1-1.1-19.8-21.8-10.6-8.7z"/>
		<path id="Layer" class="s3" d="m255.4 167.4l8.7-10.6 21.8-19.8 1.1 1.1-19.8 21.8-10.6 8.7z"/>
		<path id="Layer" class="s3" d="m255.4 167.4l-10.6 8.7-19.8 21.8 1.1 1.1 21.8-19.8 8.7-10.6z"/>
		<path id="Layer" class="s3" d="m256.3 168.7l-12.1 6.6-27.6 9.9-0.7-1.5 26.6-12.5 13.2-3.9z"/>
		<path id="Layer" class="s3" d="m256.3 168.7l13.2-3.9 26.6-12.5-0.7-1.5-27.6 9.9-12.1 6.6z"/>
		<path id="Layer" class="s3" d="m255.3 168.3l-6.6-12.1-9.9-27.6 1.5-0.7 12.5 26.6 3.9 13.2z"/>
		<path id="Layer" class="s3" d="m255.3 168.3l3.9 13.2 12.5 26.6 1.5-0.7-9.9-27.6-6.6-12.1z"/>
		<path id="Layer" class="s3" d="m255.7 168.7l-13.2-3.9-26.6-12.5 0.7-1.5 27.6 9.9 12.1 6.6z"/>
		<path id="Layer" class="s3" d="m255.7 168.7l12.1 6.6 27.6 9.9 0.7-1.5-26.6-12.5-13.2-3.9z"/>
		<path id="Layer" class="s3" d="m255.3 167.7l3.9-13.2 12.5-26.6 1.5 0.7-9.9 27.6-6.6 12.1z"/>
		<path id="Layer" class="s3" d="m255.3 167.7l-6.6 12.1-9.9 27.6 1.5 0.7 12.5-26.6 3.9-13.2z"/>
	</g>
	<path id="Layer" class="s2" d="m256 175.3c-4 0-7.3-3.3-7.3-7.3 0-4 3.3-7.3 7.3-7.3 4 0 7.3 3.3 7.3 7.3 0 4-3.3 7.3-7.3 7.3z"/>
	<path id="Layer" class="s3" d="m256 172.4c-2.4 0-4.4-2-4.4-4.4 0-2.4 2-4.4 4.4-4.4 2.4 0 4.4 2 4.4 4.4 0 2.4-2 4.4-4.4 4.4z"/>
	<g id="Layer">
	</g>
	<g id="Layer">
	</g>
	<g id="Layer">
	</g>
	<g id="Layer">
	</g>
	<g id="Layer">
	</g>
	<g id="Layer">
	</g>
	<g id="Layer">
	</g>
	<g id="Layer">
	</g>
	<g id="Layer">
	</g>
	<g id="Layer">
	</g>
	<g id="Layer">
	</g>
	<g id="Layer">
	</g>
	<g id="Layer">
	</g>
	<g id="Layer">
	</g>
	<g id="Layer">
	</g>
</svg>